<svg xmlns="http://www.w3.org/2000/svg" version="1.1" xmlns:xlink="http://www.w3.org/1999/xlink" width="1500" height="1500" viewBox="0 0 1500 1500"><rect width="1500" height="1500" x="0" y="0" id="background" stroke="transparent" fill="#f1f1f1"></rect><svg xml:space="preserve" width="1000" height="1000" data-version="2" data-id="lg_WHls0ExoFGbeW8SjkZ" viewBox="0 0 572 303" x="250" y="250"><rect width="100%" height="100%" fill="transparent"></rect><rect width="281" height="302.795" x="-140.5" y="-151.397" fill="none" rx="0" ry="0" transform="translate(432 151.9)"></rect><path fill="#414141" d="m368.46 40.83-9.39 11.24q-3.7-4-7.78-6.08t-9.47-2.08q-6.62 0-11.17 3-4.54 3.01-7.31 8.32t-4 12.4q-1.24 7.08-1.24 15.24 0 8.17 1.16 15.25 1.15 7.08 4 12.47t7.7 8.47 12.25 3.08q3.54 0 6.77-.61 3.24-.62 5.93-1.31 2.7-.69 4.47-1.31t2.23-.77l4.31 12.94-2 .77q-2 .77-5.62 1.77t-8.62 1.84q-5.01.85-11.02.85-20.63 0-31.03-13.17-10.39-13.16-10.39-38.57 0-12.17 2.77-22.26 2.77-10.08 8.39-17.32t14.17-11.24q8.55-4.01 20.1-4.01 9.24 0 15.17 3.39t9.62 7.7m13.86 94.56V31.13h18.33v90.4h38.96v13.86zm-80.54 128.77V159.9q1.08 0 4.62-.07 3.54-.08 8.01-.08 4.46 0 9.24-.08 4.77-.07 8.31-.07 26.18 0 38.81 13.01t12.63 38.73-12.94 39.42q-12.93 13.71-40.5 13.71-4.77 0-9.32-.08-4.54-.07-8.31-.07t-6.55-.08q-2.77-.08-4-.08m28.03-90.86q-3.54 0-5.93.08t-3.77.08v77.15q1.69.15 4.39.15h7.77q16.17 0 23.72-9.47 7.54-9.47 7.54-28.26 0-8.93-1.77-16.24-1.77-7.32-5.85-12.55-4.08-5.24-10.47-8.09t-15.63-2.85m70.99 90.86V159.9h61.91v13.86h-43.58v29.11h35.88l-2.31 14.01h-33.57v33.42h45.89v13.86zM560.04 159.9l-38.96 104.26h-14.33L467.79 159.9h19.56l12.94 37.27q4.92 14.48 8.47 25.49 3.54 11.01 5.39 16.86 1.69-5.85 5.15-16.55 3.47-10.71 8.71-25.49l13.39-37.58zM80.976 175.773l-29.615-14.076c-3.312-1.573-5.354-4.03-5.354-7.452v-.883c0-3.423 2.042-5.88 5.354-7.452l29.615-14.049a6.9 6.9 0 0 1 3.23-.883c2.814-.083 5.354 2.374 5.354 5.52 0 2.567-1.38 4.333-3.671 5.382l-26.524 11.868 26.496 11.84a6.07 6.07 0 0 1 3.699 5.52c0 3.257-2.54 5.52-5.796 5.438q-1.463-.056-2.816-.8m16.698 13.22 34.335-71.76q1.463-3.008 4.637-3.036c2.815 0 5.188 2.346 5.188 4.968 0 .994-.358 1.932-.607 2.567l-34.334 71.732q-1.463 3.036-4.665 3.064a5.244 5.244 0 0 1-5.16-4.996c0-.966.33-1.932.606-2.539m61.466-57.105 29.587 14.049c3.312 1.573 5.354 4.03 5.354 7.452v.883c0 3.422-2.042 5.879-5.354 7.452l-29.587 14.076c-1.077.524-2.043.855-3.257.855-2.815.083-5.355-2.373-5.355-5.52 0-2.539 1.38-4.305 3.671-5.354l26.524-11.868-26.496-11.84a6.07 6.07 0 0 1-3.699-5.52c0-3.257 2.54-5.52 5.796-5.465.966 0 1.932.359 2.816.828"></path><path fill="#414141" d="M237.33 64.6a8.28 8.28 0 0 0-8.28-8.28H8.25A8.28 8.28 0 0 0-.03 64.6v162.84a8.28 8.28 0 0 0 8.28 8.28h220.8a8.28 8.28 0 0 0 8.28-8.28zm-183.54-.47a5.99 5.99 0 1 1 0 11.98 5.99 5.99 0 0 1 0-11.98m-16.56 0a5.99 5.99 0 1 1 0 11.98 5.99 5.99 0 0 1 0-11.98m-16.56 0a5.99 5.99 0 1 1 0 11.98 5.99 5.99 0 0 1 0-11.98m205.62 160.55H11.01v-138h215.28z"></path></svg></svg>